# xmcd
#
# Track frame offsets:
#	150
#	13852
#	30863
#	46125
#	58155
#	72054
#	77411
#	95635
#	112058
#	127998
#	147352
#
# Disc length: 2230 seconds
#
# Revision: 1
# Processed by: cddbd v1.5.2PL0 Copyright (c) Steve Scherf et al.
# Submitted via: audiograbber 1.83.01
#
DISCID=8c08b40b
DTITLE=TLC - TLC
DYEAR=2017
DGENRE=R&B
TTITLE0=No Introduction
TTITLE1=Way Back ( feat. Snoop Dogg )
TTITLE2=It's Sunny
TTITLE3=Haters
TTITLE4=Perfect Girls
TTITLE5=Interlude
TTITLE6=Start A Fire
TTITLE7=American Gold
TTITLE8=Scandalous
TTITLE9=Joy Ride
TTITLE10=Way Back ( Extended Version ) ( feat. Snoop Dogg )
EXTD=when I grabbed thic CD song 10 seems to have wrong title unless there is a
EXTD=explicit version with different song title I have song 10  as JOY RIDE 
EXTT0=
EXTT1=
EXTT2=
EXTT3=
EXTT4=
EXTT5=
EXTT6=
EXTT7=
EXTT8=
EXTT9=
EXTT10=
PLAYORDER=
